<svg xmlns="http://www.w3.org/2000/svg" viewBox="0 0 120 20.98"><defs><style>.cls-1{isolation:isolate;}.cls-2{fill:#777ebc;}.cls-3{fill:#5d5d5d;}.cls-4{fill:#747bb7;}.cls-11,.cls-5{fill:#fff;}.cls-6{fill:none;}.cls-7{fill:#5f68af;}.cls-8{fill:#f16722;}.cls-9{fill:#f06923;}.cls-10,.cls-13{fill:#f05a2d;}.cls-10{opacity:0.5;mix-blend-mode:multiply;}.cls-11{opacity:0.15;}.cls-12{fill:#f37d37;}.cls-14{fill:#6f4a9d;}.cls-15{fill:#c7a8cf;}.cls-16{fill:#414042;}</style></defs><g class="cls-1"><g id="Layer_1" data-name="Layer 1"><rect class="cls-2" x="0.1" y="0.01" width="119.9" height="20.96" rx="5"/><path class="cls-3" d="M5,0H24.41a0,0,0,0,1,0,0V21a0,0,0,0,1,0,0H5a5,5,0,0,1-5-5V5A5,5,0,0,1,5,0Z"/><path class="cls-4" d="M11.25,6.92a4.53,4.53,0,0,1,.06-.5A4.53,4.53,0,0,0,11.25,6.92Z" transform="translate(-0.96 -1.08)"/><path class="cls-4" d="M11.79,6.77a2.25,2.25,0,0,0,.35-.09h0A2.25,2.25,0,0,1,11.79,6.77Z" transform="translate(-0.96 -1.08)"/><path class="cls-4" d="M17.6,13.29v0Z" transform="translate(-0.96 -1.08)"/><path class="cls-4" d="M17,14.35l.1-.14Z" transform="translate(-0.96 -1.08)"/><path class="cls-4" d="M17.23,14l0-.06Z" transform="translate(-0.96 -1.08)"/><path class="cls-4" d="M16.74,14.7l.19-.24Z" transform="translate(-0.96 -1.08)"/><path class="cls-4" d="M12.18,6.68h0c.14,0,.28-.06.42-.06h0C12.46,6.62,12.32,6.68,12.18,6.68Z" transform="translate(-0.96 -1.08)"/><path class="cls-4" d="M11.25,7l.44-.15h0Z" transform="translate(-0.96 -1.08)"/><polygon class="cls-4" points="16.45 12.61 16.45 12.61 16.45 12.61 16.45 12.61"/><polygon class="cls-4" points="16.48 12.56 16.48 12.56 16.48 12.56 16.48 12.56"/><path class="cls-4" d="M12.64,6.59a3.17,3.17,0,0,1,.43,0,3.17,3.17,0,0,0-.43,0Z" transform="translate(-0.96 -1.08)"/><path class="cls-4" d="M17.9,10.83h0s0,.06,0,.09h0S17.91,10.86,17.9,10.83Z" transform="translate(-0.96 -1.08)"/><path class="cls-4" d="M18,11.3h0v.13h0Z" transform="translate(-0.96 -1.08)"/><path class="cls-5" d="M17.27,14l.15-.27Z" transform="translate(-0.96 -1.08)"/><path class="cls-5" d="M18,11.43a2.26,2.26,0,0,1,0,.26.76.76,0,0,1,0,.15,2.28,2.28,0,0,1,0,.26c0,.09,0,.17-.05.26l0,.19-.06.21,0,.13a3.62,3.62,0,0,1-.13.35A4.85,4.85,0,0,0,18,11.43Z" transform="translate(-0.96 -1.08)"/><path class="cls-5" d="M16.93,14.46a.76.76,0,0,0,.08-.11A.76.76,0,0,1,16.93,14.46Z" transform="translate(-0.96 -1.08)"/><path class="cls-5" d="M17.44,13.64a3.73,3.73,0,0,0,.16-.35A3.73,3.73,0,0,1,17.44,13.64Z" transform="translate(-0.96 -1.08)"/><path class="cls-5" d="M17.11,14.21l.12-.19Z" transform="translate(-0.96 -1.08)"/><path class="cls-5" d="M17.42,13.69l0,0Z" transform="translate(-0.96 -1.08)"/><path class="cls-5" d="M12.64,6.59h0Z" transform="translate(-0.96 -1.08)"/><path class="cls-5" d="M12.18,6.65h0Z" transform="translate(-0.96 -1.08)"/><path class="cls-5" d="M11.71,6.76l.08,0-.1,0Z" transform="translate(-0.96 -1.08)"/><path class="cls-5" d="M17.83,10.41a.36.36,0,0,1,0,.11,2.87,2.87,0,0,1,0,.31,4.31,4.31,0,0,0-.17-.81C17.77,10.15,17.8,10.28,17.83,10.41Z" transform="translate(-0.96 -1.08)"/><polygon class="cls-5" points="10.34 5.34 10.34 5.34 10.34 5.34 10.34 5.34"/><path class="cls-5" d="M18,11.3l0-.38Z" transform="translate(-0.96 -1.08)"/><path class="cls-5" d="M17.92,9.26A5.29,5.29,0,0,0,11.3,6.42h0a1.84,1.84,0,0,0-.05.52c.14-.06.29-.07.44-.13h0s.07,0,.1,0a1.5,1.5,0,0,0,.35-.09h0c.14,0,.28-.06.42-.06h0s0,0,0,0h0a3,3,0,0,1,.44,0,4.89,4.89,0,0,1,4.45,2.88l.06.15-2.36,1.08a.23.23,0,0,0,.1.43l.09,0L17.71,10a6.83,6.83,0,0,1,.16.81h0v.09h0c0,.13.06.29.07.42h0v.12h0a4.76,4.76,0,0,1-.34,1.8s0,0,0,0-.15.23-.15.34h0c-.07,0,0,0,0,0h0l-.15.27,0,.07-.12.19-.1.14a.76.76,0,0,1-.08.11l-.19.24.49.11A5.36,5.36,0,0,0,17.92,9.26Z" transform="translate(-0.96 -1.08)"/><path class="cls-6" d="M17.74,12.89a4.89,4.89,0,0,1-.3.75A4.89,4.89,0,0,0,17.74,12.89Z" transform="translate(-0.96 -1.08)"/><path class="cls-6" d="M16.74,14.7a5.26,5.26,0,0,0,.68-1A5.26,5.26,0,0,1,16.74,14.7Z" transform="translate(-0.96 -1.08)"/><path class="cls-7" d="M17.23,14.81a5.29,5.29,0,0,1-8,.32,5.18,5.18,0,0,1-1-1.44A5.37,5.37,0,0,1,7.78,12,5.23,5.23,0,0,1,8.3,9.11,5.31,5.31,0,0,1,10.87,6.6a4.07,4.07,0,0,1,.44-.18,7.43,7.43,0,0,1,1-2.87,8,8,0,0,0-7.17,7.92,7.92,7.92,0,0,0,2.9,6.16,7.88,7.88,0,0,0,12.2-2.84A7.37,7.37,0,0,1,17.23,14.81Z" transform="translate(-0.96 -1.08)"/><path class="cls-5" d="M8.3,9.11A5.23,5.23,0,0,0,7.78,12a5.37,5.37,0,0,0,.45,1.67,5.18,5.18,0,0,0,1,1.44,5.3,5.3,0,0,0,3.89,1.7,5.27,5.27,0,0,0,4.15-2l-.49-.11a4.88,4.88,0,0,1-1.65,1.24,4.79,4.79,0,0,1-3.27.27,4.9,4.9,0,0,1-2.31-1.39l0,0,2-.91a.23.23,0,0,0,.11-.3.23.23,0,0,0-.3-.11l-2.09,1a5.1,5.1,0,0,1-.56-.93A5.21,5.21,0,0,1,8.23,12h0l4.08-1.86a.23.23,0,0,0,.11-.3.22.22,0,0,0-.29-.11l-4,1.8a5,5,0,0,1,.5-2.25A4.8,4.8,0,0,1,11.06,7l.19-.09a4.53,4.53,0,0,1,.06-.5,4.07,4.07,0,0,0-.44.18A5.31,5.31,0,0,0,8.3,9.11Z" transform="translate(-0.96 -1.08)"/><path class="cls-8" d="M11.25,6.92,11.06,7A4.8,4.8,0,0,0,8.7,9.31a5,5,0,0,0-.5,2.25L11.66,10A7.62,7.62,0,0,1,11.25,6.92Z" transform="translate(-0.96 -1.08)"/><path class="cls-8" d="M14.4,14.58a.9.9,0,0,1-.9-.91.91.91,0,0,1,.23-.6,7.29,7.29,0,0,1-1.05-1.16,7.33,7.33,0,0,1-.86-1.51L8.25,12h0a5.21,5.21,0,0,0,.4,1.46,5.1,5.1,0,0,0,.56.93l2.09-1a.23.23,0,0,1,.3.11.23.23,0,0,1-.11.3l-2,.91,0,0a4.9,4.9,0,0,0,2.31,1.39,4.83,4.83,0,0,0,4.92-1.51,7.23,7.23,0,0,1-1.54-.6A.91.91,0,0,1,14.4,14.58Z" transform="translate(-0.96 -1.08)"/><path class="cls-9" d="M14.4,14.58a.91.91,0,0,0,.8-.48,7.35,7.35,0,0,1-1.47-1,.91.91,0,0,0-.23.6A.9.9,0,0,0,14.4,14.58Z" transform="translate(-0.96 -1.08)"/><path class="cls-10" d="M14.4,14.58a.91.91,0,0,0,.8-.48,7.35,7.35,0,0,1-1.47-1,.91.91,0,0,0-.23.6A.9.9,0,0,0,14.4,14.58Z" transform="translate(-0.96 -1.08)"/><path class="cls-11" d="M12.44,9.87a.22.22,0,0,0-.29-.11l-.49.22c.05.14.1.29.16.42l.51-.23A.23.23,0,0,0,12.44,9.87Z" transform="translate(-0.96 -1.08)"/><path class="cls-12" d="M17.73,10,15.4,11.08l-.09,0a.23.23,0,0,1-.1-.43l2.37-1.08a1,1,0,0,0-.07-.15,4.88,4.88,0,0,0-6.26-2.52A7.62,7.62,0,0,0,11.66,10l.49-.22a.22.22,0,0,1,.29.11.23.23,0,0,1-.11.3l-.51.23a7.33,7.33,0,0,0,.86,1.51,7.29,7.29,0,0,0,1.05,1.16.87.87,0,0,1,.67-.31.91.91,0,0,1,.91.91.89.89,0,0,1-.11.43,7.23,7.23,0,0,0,1.54.6A4.94,4.94,0,0,0,17.73,10Z" transform="translate(-0.96 -1.08)"/><path class="cls-13" d="M15.31,13.67a.91.91,0,0,0-.91-.91.87.87,0,0,0-.67.31,7.35,7.35,0,0,0,1.47,1A.89.89,0,0,0,15.31,13.67Z" transform="translate(-0.96 -1.08)"/><path class="cls-2" d="M17.65,5.58A2.35,2.35,0,0,1,17.72,5a7.8,7.8,0,0,0-4.65-1.52c-.25,0-.5,0-.74,0a7.43,7.43,0,0,0-1,2.87,5.26,5.26,0,0,1,1.76-.31,5.36,5.36,0,0,1,4.16,8.7,7.36,7.36,0,0,0,3,0A8,8,0,0,0,20,7.64l-.28,0A2.08,2.08,0,0,1,17.65,5.58Z" transform="translate(-0.96 -1.08)"/><path class="cls-5" d="M22.15,6.2a2.25,2.25,0,0,0,.08-.62,2.52,2.52,0,0,0-2.51-2.53h0a2.51,2.51,0,0,0-2.17,1.31,8.27,8.27,0,0,0-4.45-1.29q-.39,0-.78,0A8.27,8.27,0,0,0,7.77,5,8.43,8.43,0,0,0,5.14,8.8a8.63,8.63,0,0,0-.43,2.67,8.53,8.53,0,0,0,.44,2.7A8.36,8.36,0,1,0,20.64,7.93,2.49,2.49,0,0,0,22.15,6.2ZM21,11.47a7.95,7.95,0,0,1-7.91,8,7.87,7.87,0,0,1-5-1.8,7.92,7.92,0,0,1-2.9-6.16A7.79,7.79,0,0,1,5.57,9a7.9,7.9,0,0,1,6.76-5.4c.24,0,.49,0,.74,0a7.81,7.81,0,0,1,4.27,1.26,2.36,2.36,0,0,0-.14.8,2.52,2.52,0,0,0,2.52,2.53,2.63,2.63,0,0,0,.49,0A7.93,7.93,0,0,1,21,11.47Z" transform="translate(-0.96 -1.08)"/><path class="cls-14" d="M19.51,3.52Z" transform="translate(-0.96 -1.08)"/><path class="cls-14" d="M19.55,5.64a1.82,1.82,0,0,1,0-2.12A2.08,2.08,0,0,0,17.72,5a2.35,2.35,0,0,0-.07.54,2.08,2.08,0,0,0,2.07,2.08l.28,0a2.08,2.08,0,0,0,1.66-1.36A1.83,1.83,0,0,1,19.55,5.64Z" transform="translate(-0.96 -1.08)"/><path class="cls-14" d="M21.66,6.28h0a1.27,1.27,0,0,0,.06-.18Z" transform="translate(-0.96 -1.08)"/><path class="cls-15" d="M19.72,3.5l-.21,0a1.83,1.83,0,0,0,2.15,2.75,1.27,1.27,0,0,0,.06-.18,2.24,2.24,0,0,0,.07-.51A2.08,2.08,0,0,0,19.72,3.5Z" transform="translate(-0.96 -1.08)"/><path class="cls-16" d="M28.41,12a4.35,4.35,0,0,1,.3-1.72,3.13,3.13,0,0,1,.62-.91,2.61,2.61,0,0,1,.86-.61,3.72,3.72,0,0,1,1.43-.26A3.12,3.12,0,0,1,34,9.4,3.51,3.51,0,0,1,34.85,12,3.53,3.53,0,0,1,34,14.48a3.49,3.49,0,0,1-4.7,0A3.46,3.46,0,0,1,28.41,12Zm1.38-.05a2.49,2.49,0,0,0,.52,1.72,1.7,1.7,0,0,0,1.32.59A1.67,1.67,0,0,0,33,13.66a2.59,2.59,0,0,0,.52-1.75A2.55,2.55,0,0,0,33,10.2a1.7,1.7,0,0,0-1.34-.57,1.67,1.67,0,0,0-1.33.58A2.51,2.51,0,0,0,29.79,11.93Z" transform="translate(-0.96 -1.08)"/><path class="cls-16" d="M39.06,15.28v-.73a1.8,1.8,0,0,1-.69.62,2.06,2.06,0,0,1-.9.22,1.72,1.72,0,0,1-.88-.22,1.23,1.23,0,0,1-.55-.6,2.58,2.58,0,0,1-.18-1.07V10.44h1.28v2.22a5.93,5.93,0,0,0,.07,1.25.66.66,0,0,0,.26.37.77.77,0,0,0,.47.13,1,1,0,0,0,.58-.18,1,1,0,0,0,.36-.44A5.58,5.58,0,0,0,39,12.48v-2h1.28v4.84Z" transform="translate(-0.96 -1.08)"/><path class="cls-16" d="M42.89,15.28,41,10.44h1.34l.9,2.47.27.82c.06-.21.11-.34.13-.41s.08-.28.13-.41l.92-2.47H46L44,15.28Z" transform="translate(-0.96 -1.08)"/><path class="cls-16" d="M48,15.28H46.67V10.44h1.19v.68a2.19,2.19,0,0,1,.54-.64,1.07,1.07,0,0,1,.56-.15,1.57,1.57,0,0,1,.83.24l-.39,1.12a1.09,1.09,0,0,0-.6-.21.73.73,0,0,0-.45.14,1,1,0,0,0-.29.54A7,7,0,0,0,48,13.78Z" transform="translate(-0.96 -1.08)"/><path class="cls-16" d="M50.34,9.78V8.59h1.28V9.78Zm0,5.5V10.44h1.28v4.84Z" transform="translate(-0.96 -1.08)"/><path class="cls-16" d="M54.14,15.28H52.87V10.44h1.18v.68a2.19,2.19,0,0,1,.55-.64,1,1,0,0,1,.55-.15,1.63,1.63,0,0,1,.84.24l-.4,1.12a1.09,1.09,0,0,0-.59-.21.78.78,0,0,0-.46.14,1,1,0,0,0-.29.54,7.64,7.64,0,0,0-.11,1.62Z" transform="translate(-0.96 -1.08)"/><path class="cls-16" d="M63.53,15.28H62.35v-.71a2.05,2.05,0,0,1-.7.62,1.8,1.8,0,0,1-.81.2,1.86,1.86,0,0,1-1.42-.67,2.79,2.79,0,0,1-.59-1.88A2.67,2.67,0,0,1,59.41,11a1.85,1.85,0,0,1,1.45-.64,1.79,1.79,0,0,1,1.4.67V8.59h1.27Zm-3.4-2.53a2.12,2.12,0,0,0,.22,1.12A1,1,0,0,0,62,14a1.78,1.78,0,0,0,.3-1.12,1.94,1.94,0,0,0-.3-1.21.93.93,0,0,0-.76-.36,1,1,0,0,0-.76.36A1.6,1.6,0,0,0,60.13,12.75Z" transform="translate(-0.96 -1.08)"/><path class="cls-16" d="M65.74,11.91l-1.15-.21a1.84,1.84,0,0,1,.67-1,2.47,2.47,0,0,1,1.41-.33,3,3,0,0,1,1.27.2,1.27,1.27,0,0,1,.59.52,2.67,2.67,0,0,1,.17,1.14l0,1.5a4.36,4.36,0,0,0,.07.94,2.77,2.77,0,0,0,.22.65H67.71c0-.09-.07-.21-.12-.38a1.27,1.27,0,0,0,0-.15,2.43,2.43,0,0,1-.7.48,1.94,1.94,0,0,1-.8.16A1.65,1.65,0,0,1,64.88,15a1.43,1.43,0,0,1-.23-1.75,1.27,1.27,0,0,1,.55-.5,4.61,4.61,0,0,1,1-.3,6.73,6.73,0,0,0,1.24-.31V12a.68.68,0,0,0-.18-.53,1.15,1.15,0,0,0-.69-.15.9.9,0,0,0-.53.13A.94.94,0,0,0,65.74,11.91Zm1.71,1c-.17.06-.43.12-.78.2a2.61,2.61,0,0,0-.69.22.53.53,0,0,0-.25.45.61.61,0,0,0,.2.47.69.69,0,0,0,.51.2,1.1,1.1,0,0,0,.65-.23.81.81,0,0,0,.31-.43,2.66,2.66,0,0,0,0-.62Z" transform="translate(-0.96 -1.08)"/><path class="cls-16" d="M74.33,15.28H73.06V12.81a4.13,4.13,0,0,0-.08-1,.75.75,0,0,0-.27-.36.78.78,0,0,0-.44-.12,1,1,0,0,0-.59.18.86.86,0,0,0-.36.48,4,4,0,0,0-.1,1.12v2.19H70V10.44h1.18v.71a1.92,1.92,0,0,1,1.59-.82,2,2,0,0,1,.77.15,1.19,1.19,0,0,1,.52.39,1.34,1.34,0,0,1,.25.54,3.83,3.83,0,0,1,.07.86Z" transform="translate(-0.96 -1.08)"/><path class="cls-16" d="M75.18,13.9l1.28-.2a.91.91,0,0,0,.33.57,1.1,1.1,0,0,0,.7.19,1.26,1.26,0,0,0,.74-.18.41.41,0,0,0,.17-.34.32.32,0,0,0-.09-.24,1.07,1.07,0,0,0-.43-.17,6.68,6.68,0,0,1-1.95-.63,1.23,1.23,0,0,1-.58-1.09,1.33,1.33,0,0,1,.5-1.05,2.27,2.27,0,0,1,1.53-.43,2.63,2.63,0,0,1,1.47.32,1.68,1.68,0,0,1,.66,1l-1.2.22A.74.74,0,0,0,78,11.4a1.09,1.09,0,0,0-.62-.15,1.34,1.34,0,0,0-.72.14.31.31,0,0,0-.14.26.28.28,0,0,0,.12.23,4.53,4.53,0,0,0,1.2.36,3.74,3.74,0,0,1,1.42.57,1.22,1.22,0,0,1,.4,1,1.47,1.47,0,0,1-.56,1.14,2.42,2.42,0,0,1-1.63.48,2.65,2.65,0,0,1-1.56-.4A1.87,1.87,0,0,1,75.18,13.9Z" transform="translate(-0.96 -1.08)"/><path class="cls-16" d="M87.63,12.82l1.3.42a2.87,2.87,0,0,1-1,1.62,2.78,2.78,0,0,1-1.77.53A2.83,2.83,0,0,1,84,14.48,3.46,3.46,0,0,1,83.14,12,3.69,3.69,0,0,1,84,9.4a2.94,2.94,0,0,1,2.25-.92,2.78,2.78,0,0,1,2,.72,2.68,2.68,0,0,1,.68,1.24l-1.33.32a1.46,1.46,0,0,0-.49-.83,1.42,1.42,0,0,0-.91-.3,1.48,1.48,0,0,0-1.2.54,2.6,2.6,0,0,0-.46,1.73A2.83,2.83,0,0,0,85,13.7a1.47,1.47,0,0,0,1.18.54,1.33,1.33,0,0,0,.92-.34A2,2,0,0,0,87.63,12.82Z" transform="translate(-0.96 -1.08)"/><path class="cls-16" d="M91,11.91l-1.16-.21a1.9,1.9,0,0,1,.67-1A2.5,2.5,0,0,1,92,10.33a3,3,0,0,1,1.27.2,1.27,1.27,0,0,1,.59.52A2.67,2.67,0,0,1,94,12.19l0,1.5a5.33,5.33,0,0,0,.06.94,2.83,2.83,0,0,0,.23.65H93c0-.09-.07-.21-.12-.38a.81.81,0,0,0,0-.15,2.39,2.39,0,0,1-.69.48,2,2,0,0,1-.8.16A1.65,1.65,0,0,1,90.17,15a1.33,1.33,0,0,1-.43-1,1.35,1.35,0,0,1,.2-.73,1.3,1.3,0,0,1,.54-.5,4.91,4.91,0,0,1,1-.3,6.57,6.57,0,0,0,1.23-.31V12a.68.68,0,0,0-.18-.53,1.12,1.12,0,0,0-.68-.15.88.88,0,0,0-.53.13A.94.94,0,0,0,91,11.91Zm1.7,1a7.2,7.2,0,0,1-.77.2,2.48,2.48,0,0,0-.69.22.53.53,0,0,0-.25.45.61.61,0,0,0,.2.47.69.69,0,0,0,.5.2,1.13,1.13,0,0,0,.66-.23.74.74,0,0,0,.3-.43,2.19,2.19,0,0,0,0-.62Z" transform="translate(-0.96 -1.08)"/><path class="cls-16" d="M95.24,15.28V8.59h1.28v6.69Z" transform="translate(-0.96 -1.08)"/><path class="cls-16" d="M97.82,15.28V8.59H99.1v6.69Z" transform="translate(-0.96 -1.08)"/><path class="cls-16" d="M99.8,10.44h1.35l1.16,3.43,1.12-3.43h1.32l-1.7,4.66-.3.84a4.37,4.37,0,0,1-.32.65,1.34,1.34,0,0,1-.35.36,1.58,1.58,0,0,1-.49.22,2.57,2.57,0,0,1-.65.08,3.53,3.53,0,0,1-.72-.08l-.11-1a2.78,2.78,0,0,0,.54.06.77.77,0,0,0,.65-.26,1.62,1.62,0,0,0,.33-.67Z" transform="translate(-0.96 -1.08)"/><path class="cls-16" d="M105.12,13.9l1.28-.2a.91.91,0,0,0,.33.57,1.1,1.1,0,0,0,.7.19,1.26,1.26,0,0,0,.74-.18.41.41,0,0,0,.17-.34.32.32,0,0,0-.09-.24,1.07,1.07,0,0,0-.43-.17,6.68,6.68,0,0,1-1.95-.63,1.25,1.25,0,0,1-.58-1.09,1.33,1.33,0,0,1,.5-1.05,2.27,2.27,0,0,1,1.53-.43,2.63,2.63,0,0,1,1.47.32,1.68,1.68,0,0,1,.66,1l-1.2.22a.74.74,0,0,0-.29-.43,1.07,1.07,0,0,0-.62-.15,1.34,1.34,0,0,0-.72.14.31.31,0,0,0-.14.26.27.27,0,0,0,.13.23,4.26,4.26,0,0,0,1.19.36,3.74,3.74,0,0,1,1.42.57,1.22,1.22,0,0,1,.4,1,1.47,1.47,0,0,1-.56,1.14,2.42,2.42,0,0,1-1.63.48,2.65,2.65,0,0,1-1.56-.4A1.87,1.87,0,0,1,105.12,13.9Z" transform="translate(-0.96 -1.08)"/><path class="cls-16" d="M112.94,10.44v1h-.87v1.95c0,.39,0,.63,0,.69a.28.28,0,0,0,.12.16.31.31,0,0,0,.21.07,1.45,1.45,0,0,0,.51-.13l.11,1a2.44,2.44,0,0,1-1,.19,1.52,1.52,0,0,1-.62-.12A.88.88,0,0,1,111,15a1.09,1.09,0,0,1-.18-.5,5.87,5.87,0,0,1,0-.9V11.46h-.58v-1h.58v-1l1.28-.74v1.71Z" transform="translate(-0.96 -1.08)"/><path class="cls-16" d="M113.53,12.79a2.62,2.62,0,0,1,.31-1.24,2.23,2.23,0,0,1,.89-.91,2.61,2.61,0,0,1,1.28-.31,2.38,2.38,0,0,1,1.79.71,2.47,2.47,0,0,1,.7,1.8,2.53,2.53,0,0,1-.71,1.83,2.37,2.37,0,0,1-1.77.72,2.78,2.78,0,0,1-1.26-.3,2.06,2.06,0,0,1-.92-.88A3,3,0,0,1,113.53,12.79Zm1.3.07a1.63,1.63,0,0,0,.34,1.1,1.07,1.07,0,0,0,.84.38,1,1,0,0,0,.84-.38,1.59,1.59,0,0,0,.34-1.11,1.59,1.59,0,0,0-.34-1.1,1.07,1.07,0,0,0-.84-.38,1.1,1.1,0,0,0-.84.38A1.67,1.67,0,0,0,114.83,12.86Z" transform="translate(-0.96 -1.08)"/><path class="cls-5" d="M28.41,11.38a4.31,4.31,0,0,1,.3-1.72,3.17,3.17,0,0,1,.62-.92,2.58,2.58,0,0,1,.86-.6,3.72,3.72,0,0,1,1.43-.26A3.11,3.11,0,0,1,34,8.79a3.51,3.51,0,0,1,.88,2.55A3.54,3.54,0,0,1,34,13.88a3.49,3.49,0,0,1-4.7,0A3.47,3.47,0,0,1,28.41,11.38Zm1.38-.05a2.49,2.49,0,0,0,.52,1.72,1.78,1.78,0,0,0,2.64,0,2.59,2.59,0,0,0,.52-1.75A2.53,2.53,0,0,0,33,9.6a1.85,1.85,0,0,0-2.67,0A2.54,2.54,0,0,0,29.79,11.33Z" transform="translate(-0.96 -1.08)"/><path class="cls-5" d="M39.06,14.68V14a1.78,1.78,0,0,1-.69.61,1.94,1.94,0,0,1-.9.23,1.72,1.72,0,0,1-.88-.22A1.23,1.23,0,0,1,36,14a2.61,2.61,0,0,1-.18-1.07V9.83h1.28v2.23a5.93,5.93,0,0,0,.07,1.25.7.7,0,0,0,.26.37.77.77,0,0,0,.47.13,1,1,0,0,0,.58-.18,1,1,0,0,0,.36-.45,5.41,5.41,0,0,0,.09-1.3V9.83h1.28v4.85Z" transform="translate(-0.96 -1.08)"/><path class="cls-5" d="M42.89,14.68,41,9.83h1.34l.9,2.48.27.82c.06-.21.11-.35.13-.41s.08-.28.13-.41l.92-2.48H46L44,14.68Z" transform="translate(-0.96 -1.08)"/><path class="cls-5" d="M48,14.68H46.67V9.83h1.19v.69a2.06,2.06,0,0,1,.54-.64A1.08,1.08,0,0,1,49,9.72a1.49,1.49,0,0,1,.83.25l-.39,1.11a1.09,1.09,0,0,0-.6-.21.68.68,0,0,0-.45.15,1,1,0,0,0-.29.54A7,7,0,0,0,48,13.18Z" transform="translate(-0.96 -1.08)"/><path class="cls-5" d="M50.34,9.18V8h1.28V9.18Zm0,5.5V9.83h1.28v4.85Z" transform="translate(-0.96 -1.08)"/><path class="cls-5" d="M54.14,14.68H52.87V9.83h1.18v.69a2.06,2.06,0,0,1,.55-.64,1,1,0,0,1,.55-.16A1.55,1.55,0,0,1,56,10l-.4,1.11a1.09,1.09,0,0,0-.59-.21.73.73,0,0,0-.46.15,1,1,0,0,0-.29.54,7.64,7.64,0,0,0-.11,1.62Z" transform="translate(-0.96 -1.08)"/><path class="cls-5" d="M63.53,14.68H62.35V14a1.92,1.92,0,0,1-.7.61,1.69,1.69,0,0,1-.81.21,1.84,1.84,0,0,1-1.42-.68,2.74,2.74,0,0,1-.59-1.87,2.71,2.71,0,0,1,.58-1.88,1.89,1.89,0,0,1,1.45-.64,1.8,1.8,0,0,1,1.4.68V8h1.27Zm-3.4-2.53a2.12,2.12,0,0,0,.22,1.12A1,1,0,0,0,62,13.4a1.79,1.79,0,0,0,.3-1.13,1.92,1.92,0,0,0-.3-1.2.94.94,0,0,0-.76-.37,1,1,0,0,0-.76.37A1.6,1.6,0,0,0,60.13,12.15Z" transform="translate(-0.96 -1.08)"/><path class="cls-5" d="M65.74,11.31l-1.15-.21a1.81,1.81,0,0,1,.67-1,2.46,2.46,0,0,1,1.41-.34,2.94,2.94,0,0,1,1.27.21,1.25,1.25,0,0,1,.59.51,2.72,2.72,0,0,1,.17,1.15l0,1.5a4.36,4.36,0,0,0,.07.94,2.77,2.77,0,0,0,.22.65H67.71c0-.09-.07-.21-.12-.38a1.27,1.27,0,0,0,0-.15,2.43,2.43,0,0,1-.7.48,2.11,2.11,0,0,1-.8.16,1.65,1.65,0,0,1-1.17-.41,1.37,1.37,0,0,1-.43-1,1.4,1.4,0,0,1,.2-.73,1.25,1.25,0,0,1,.55-.49,4.61,4.61,0,0,1,1-.3,7.69,7.69,0,0,0,1.24-.31v-.13a.68.68,0,0,0-.18-.53,1.14,1.14,0,0,0-.69-.16.9.9,0,0,0-.53.14A.94.94,0,0,0,65.74,11.31Zm1.71,1c-.17.06-.43.12-.78.2a2.28,2.28,0,0,0-.69.22.53.53,0,0,0-.25.45.61.61,0,0,0,.2.47.69.69,0,0,0,.51.19,1.08,1.08,0,0,0,.65-.22.81.81,0,0,0,.31-.43,2.72,2.72,0,0,0,0-.62Z" transform="translate(-0.96 -1.08)"/><path class="cls-5" d="M74.33,14.68H73.06V12.21a4.07,4.07,0,0,0-.08-1,.75.75,0,0,0-.27-.36.79.79,0,0,0-.44-.13,1,1,0,0,0-.59.19.86.86,0,0,0-.36.48,4,4,0,0,0-.1,1.11v2.2H70V9.83h1.18v.72a1.93,1.93,0,0,1,1.59-.83,2,2,0,0,1,.77.16,1.19,1.19,0,0,1,.52.39,1.22,1.22,0,0,1,.25.54,3.77,3.77,0,0,1,.07.86Z" transform="translate(-0.96 -1.08)"/><path class="cls-5" d="M75.18,13.3l1.28-.2a.91.91,0,0,0,.33.57,1.1,1.1,0,0,0,.7.19,1.26,1.26,0,0,0,.74-.18.42.42,0,0,0,.17-.34.37.37,0,0,0-.09-.25,1.09,1.09,0,0,0-.43-.16,6.68,6.68,0,0,1-1.95-.63,1.23,1.23,0,0,1-.58-1.09,1.36,1.36,0,0,1,.5-1.06,2.33,2.33,0,0,1,1.53-.43,2.62,2.62,0,0,1,1.47.33,1.61,1.61,0,0,1,.66,1l-1.2.22A.74.74,0,0,0,78,10.8a1.09,1.09,0,0,0-.62-.15,1.34,1.34,0,0,0-.72.14.3.3,0,0,0-.14.26.28.28,0,0,0,.12.23,5.53,5.53,0,0,0,1.2.36,3.44,3.44,0,0,1,1.42.57,1.21,1.21,0,0,1,.4.95,1.47,1.47,0,0,1-.56,1.15,2.42,2.42,0,0,1-1.63.48,2.73,2.73,0,0,1-1.56-.4A1.9,1.9,0,0,1,75.18,13.3Z" transform="translate(-0.96 -1.08)"/><path class="cls-5" d="M87.63,12.22l1.3.41a2.9,2.9,0,0,1-1,1.63A3.12,3.12,0,0,1,84,13.88a3.49,3.49,0,0,1-.86-2.49A3.68,3.68,0,0,1,84,8.8a2.9,2.9,0,0,1,2.25-.92,2.78,2.78,0,0,1,2,.72,2.69,2.69,0,0,1,.68,1.23l-1.33.32A1.37,1.37,0,0,0,86.19,9a1.51,1.51,0,0,0-1.2.53,2.63,2.63,0,0,0-.46,1.73A2.84,2.84,0,0,0,85,13.1a1.47,1.47,0,0,0,1.18.54,1.38,1.38,0,0,0,.92-.34A2,2,0,0,0,87.63,12.22Z" transform="translate(-0.96 -1.08)"/><path class="cls-5" d="M91,11.31l-1.16-.21a1.86,1.86,0,0,1,.67-1A2.5,2.5,0,0,1,92,9.72a2.94,2.94,0,0,1,1.27.21,1.25,1.25,0,0,1,.59.51A2.72,2.72,0,0,1,94,11.59l0,1.5A5.33,5.33,0,0,0,94,14a2.83,2.83,0,0,0,.23.65H93c0-.09-.07-.21-.12-.38a.81.81,0,0,0,0-.15,2.39,2.39,0,0,1-.69.48,2.15,2.15,0,0,1-.8.16,1.65,1.65,0,0,1-1.17-.41,1.34,1.34,0,0,1-.43-1,1.4,1.4,0,0,1,.2-.73,1.28,1.28,0,0,1,.54-.49,4.91,4.91,0,0,1,1-.3,7.49,7.49,0,0,0,1.23-.31v-.13a.68.68,0,0,0-.18-.53,1.11,1.11,0,0,0-.68-.16.88.88,0,0,0-.53.14A.94.94,0,0,0,91,11.31Zm1.7,1a7.2,7.2,0,0,1-.77.2,2.18,2.18,0,0,0-.69.22.53.53,0,0,0-.25.45.61.61,0,0,0,.2.47.68.68,0,0,0,.5.19,1.11,1.11,0,0,0,.66-.22.74.74,0,0,0,.3-.43,2.23,2.23,0,0,0,0-.62Z" transform="translate(-0.96 -1.08)"/><path class="cls-5" d="M95.24,14.68V8h1.28v6.69Z" transform="translate(-0.96 -1.08)"/><path class="cls-5" d="M97.82,14.68V8H99.1v6.69Z" transform="translate(-0.96 -1.08)"/><path class="cls-5" d="M99.8,9.83h1.35l1.16,3.44,1.12-3.44h1.32l-1.7,4.66-.3.85a4.37,4.37,0,0,1-.32.65,1.34,1.34,0,0,1-.35.36,1.85,1.85,0,0,1-.49.22,2.59,2.59,0,0,1-.65.07,3.51,3.51,0,0,1-.72-.07l-.11-1a2.78,2.78,0,0,0,.54.06.8.8,0,0,0,.65-.26,1.68,1.68,0,0,0,.33-.67Z" transform="translate(-0.96 -1.08)"/><path class="cls-5" d="M105.12,13.3l1.28-.2a.91.91,0,0,0,.33.57,1.1,1.1,0,0,0,.7.19,1.26,1.26,0,0,0,.74-.18.42.42,0,0,0,.17-.34.37.37,0,0,0-.09-.25,1.09,1.09,0,0,0-.43-.16,6.68,6.68,0,0,1-1.95-.63,1.25,1.25,0,0,1-.58-1.09,1.36,1.36,0,0,1,.5-1.06,2.33,2.33,0,0,1,1.53-.43,2.62,2.62,0,0,1,1.47.33,1.61,1.61,0,0,1,.66,1l-1.2.22a.74.74,0,0,0-.29-.43,1.07,1.07,0,0,0-.62-.15,1.34,1.34,0,0,0-.72.14.3.3,0,0,0-.14.26.27.27,0,0,0,.13.23,5.16,5.16,0,0,0,1.19.36,3.44,3.44,0,0,1,1.42.57,1.21,1.21,0,0,1,.4.95,1.47,1.47,0,0,1-.56,1.15,2.42,2.42,0,0,1-1.63.48,2.73,2.73,0,0,1-1.56-.4A1.9,1.9,0,0,1,105.12,13.3Z" transform="translate(-0.96 -1.08)"/><path class="cls-5" d="M112.94,9.83v1h-.87v2c0,.39,0,.62,0,.69a.31.31,0,0,0,.12.16.37.37,0,0,0,.21.06,1.63,1.63,0,0,0,.51-.12l.11,1a2.62,2.62,0,0,1-1,.19,1.52,1.52,0,0,1-.62-.12,1,1,0,0,1-.41-.3,1.09,1.09,0,0,1-.18-.5,5.87,5.87,0,0,1,0-.9V10.86h-.58v-1h.58v-1l1.28-.75V9.83Z" transform="translate(-0.96 -1.08)"/><path class="cls-5" d="M113.53,12.19a2.62,2.62,0,0,1,.31-1.24,2.17,2.17,0,0,1,.89-.91A2.61,2.61,0,0,1,116,9.72a2.39,2.39,0,0,1,1.79.72,2.45,2.45,0,0,1,.7,1.8,2.5,2.5,0,0,1-.71,1.82,2.35,2.35,0,0,1-1.77.73,2.78,2.78,0,0,1-1.26-.3,2.08,2.08,0,0,1-.92-.89A2.91,2.91,0,0,1,113.53,12.19Zm1.3.07a1.64,1.64,0,0,0,.34,1.1,1.1,1.1,0,0,0,.84.38,1.07,1.07,0,0,0,.84-.38,1.62,1.62,0,0,0,.34-1.11,1.59,1.59,0,0,0-.34-1.1,1.07,1.07,0,0,0-.84-.38,1.1,1.1,0,0,0-.84.38A1.65,1.65,0,0,0,114.83,12.26Z" transform="translate(-0.96 -1.08)"/></g></g></svg>